<?xml version="1.0" encoding="UTF-8"?>
<svg id="Capa_1" data-name="Capa 1" xmlns="http://www.w3.org/2000/svg" viewBox="0 0 50 50">
  <defs>
    <style>
      .cls-1 {
        fill: #2e3338;
      }
    </style>
  </defs>
  <path class="cls-1" d="M25,1.65c3.1,0,6.07,1.23,8.26,3.42,2.19,2.19,3.42,5.16,3.42,8.26s-1.23,6.07-3.42,8.26c-2.19,2.19-5.16,3.42-8.26,3.42s-6.07-1.23-8.26-3.42c-2.19-2.19-3.42-5.16-3.42-8.26s1.23-6.07,3.42-8.26c2.19-2.19,5.16-3.42,8.26-3.42Zm0,29.19c12.9,0,23.35,5.23,23.35,11.68v5.84H1.65v-5.84c0-6.45,10.45-11.68,23.35-11.68Z"/>
</svg>