<?xml version="1.0" encoding="UTF-8"?>
<svg id="Capa_1" data-name="Capa 1" xmlns="http://www.w3.org/2000/svg" viewBox="0 0 50 50">
  <defs>
    <style>
      .cls-1 {
        fill: #2e3338;
      }
    </style>
  </defs>
  <path class="cls-1" d="M46.29,7.88l-3.1-1.3V27.46l5.62-13.55c.95-2.36-.14-5.06-2.52-6.04ZM1.2,16.43l11.47,27.63c.72,1.78,2.4,2.87,4.19,2.91,.6,0,1.23-.12,1.83-.37l17.04-7.05c1.73-.72,2.8-2.43,2.84-4.14,.02-.6-.09-1.27-.3-1.87L26.7,5.91c-.67-1.78-2.38-2.87-4.19-2.89-.6,0-1.2,.14-1.78,.35L3.72,10.42c-2.36,.97-3.49,3.68-2.52,6.01ZM38.54,7.65c0-1.23-.49-2.4-1.35-3.27s-2.04-1.35-3.27-1.35h-3.35l7.98,19.29"/>
</svg>