<?xml version="1.0" encoding="UTF-8"?>
<svg id="Capa_1" data-name="Capa 1" xmlns="http://www.w3.org/2000/svg" viewBox="0 0 50 50">
  <defs>
    <style>
      .cls-1 {
        fill: #2e3338;
      }
    </style>
  </defs>
  <path class="cls-1" d="M4.32,1.34L1.34,4.32,12.11,15.07H4.57v4.2h14.7V4.57h-4.2v7.54m8.4,2.96v4.2h20.99v12.6h4.2v-12.6c0-1.11-.44-2.18-1.23-2.97-.79-.79-1.86-1.23-2.97-1.23M15.07,23.47v20.99c0,1.11,.44,2.18,1.23,2.97,.79,.79,1.86,1.23,2.97,1.23h12.6v-4.2h-12.6V23.47m14.44,7.27l-2.98,2.98,10.79,10.75h-5.46v4.2h12.6v-12.6h-4.2v5.44"/>
</svg>