<?xml version="1.0" encoding="UTF-8"?>
<svg id="Capa_1" data-name="Capa 1" xmlns="http://www.w3.org/2000/svg" viewBox="0 0 50 50">
  <defs>
    <style>
      .cls-1 {
        fill: #2e3338;
      }
    </style>
  </defs>
  <path class="cls-1" d="M39.46,25c-1.05,0-2.05-.41-2.79-1.15-.74-.74-1.15-1.74-1.15-2.79s.42-2.05,1.15-2.79c.74-.74,1.74-1.15,2.79-1.15s2.05,.41,2.79,1.15c.74,.74,1.16,1.74,1.16,2.79s-.42,2.05-1.16,2.79c-.74,.74-1.74,1.15-2.79,1.15Zm-7.89-10.52c-1.05,0-2.05-.41-2.79-1.15-.74-.74-1.15-1.74-1.15-2.79s.42-2.05,1.15-2.79c.74-.74,1.74-1.16,2.79-1.16s2.05,.42,2.79,1.16c.74,.74,1.16,1.74,1.16,2.79s-.42,2.05-1.16,2.79c-.74,.74-1.74,1.15-2.79,1.15Zm-13.14,0c-1.05,0-2.05-.41-2.79-1.15-.74-.74-1.16-1.74-1.16-2.79s.42-2.05,1.16-2.79c.74-.74,1.74-1.16,2.79-1.16s2.05,.42,2.79,1.16c.74,.74,1.15,1.74,1.15,2.79s-.42,2.05-1.15,2.79c-.74,.74-1.74,1.15-2.79,1.15Zm-7.89,10.52c-1.05,0-2.05-.41-2.79-1.15-.74-.74-1.16-1.74-1.16-2.79s.42-2.05,1.16-2.79c.74-.74,1.74-1.15,2.79-1.15s2.05,.41,2.79,1.15c.74,.74,1.16,1.74,1.16,2.79s-.42,2.05-1.16,2.79c-.74,.74-1.74,1.15-2.79,1.15ZM25,1.34c-6.28,0-12.29,2.49-16.73,6.93C3.83,12.71,1.34,18.73,1.34,25s2.49,12.29,6.93,16.73c4.44,4.44,10.46,6.93,16.73,6.93,1.05,0,2.05-.41,2.79-1.15,.74-.74,1.15-1.74,1.15-2.79s-.39-1.94-1.03-2.63c-.6-.71-1-1.63-1-2.63s.42-2.05,1.15-2.79c.74-.74,1.74-1.15,2.79-1.15h4.65c3.49,0,6.83-1.38,9.29-3.85,2.47-2.47,3.85-5.81,3.85-9.3C48.66,10.75,38.07,1.34,25,1.34Z"/>
</svg>