<?xml version="1.0" encoding="UTF-8"?>
<svg id="Capa_1" data-name="Capa 1" xmlns="http://www.w3.org/2000/svg" viewBox="0 0 50 50">
  <defs>
    <style>
      .cls-1 {
        fill: #2e3338;
      }
    </style>
  </defs>
  <path class="cls-1" d="M45.45,1.34H22.95c-1.76,0-3.21,1.45-3.21,3.21V14.48h15.77v15.77h9.94c1.76,0,3.21-1.44,3.21-3.21V4.55c0-1.76-1.45-3.21-3.21-3.21ZM26.16,10.99c-1.79,0-3.23-1.45-3.23-3.23s1.45-3.23,3.23-3.23c.86,0,1.68,.34,2.29,.95,.61,.61,.95,1.43,.95,2.29,0,1.79-1.45,3.23-3.23,3.23Zm16.09,16.06c-1.79,.03-3.23-1.42-3.26-3.21-.03-1.79,1.42-3.23,3.21-3.26,1.79-.03,3.23,1.42,3.26,3.26-.03,1.76-1.45,3.18-3.21,3.21Zm0-16.06c-1.79,.03-3.23-1.42-3.26-3.21-.03-1.79,1.42-3.23,3.21-3.26,1.79-.03,3.23,1.42,3.26,3.23,0,1.79-1.42,3.21-3.21,3.23ZM4.55,19.74H27.05c.85,0,1.67,.34,2.27,.94,.6,.6,.94,1.42,.94,2.27v22.5c0,1.76-1.45,3.21-3.21,3.21H4.55c-1.76,0-3.21-1.45-3.21-3.21V22.95c0-1.76,1.45-3.21,3.21-3.21Zm11.25,11.25c-1.76,0-3.21,1.45-3.21,3.21s1.45,3.21,3.21,3.21,3.21-1.45,3.21-3.21c0-.85-.34-1.67-.94-2.27-.6-.6-1.42-.94-2.27-.94ZM7.75,22.95c-1.76,0-3.21,1.45-3.21,3.21,0,.42,.08,.84,.24,1.23,.16,.39,.4,.74,.7,1.04,.3,.3,.65,.53,1.04,.7,.39,.16,.81,.24,1.23,.24,1.76,0,3.21-1.45,3.21-3.21s-1.45-3.21-3.21-3.21Zm16.06,16.06c-1.76,0-3.21,1.45-3.21,3.21s1.45,3.21,3.21,3.21c.85,0,1.67-.34,2.27-.94,.6-.6,.94-1.42,.94-2.27,0-1.76-1.42-3.18-3.18-3.21h-.03Z"/>
</svg>