<?xml version="1.0" encoding="UTF-8"?>
<svg id="Capa_1" data-name="Capa 1" xmlns="http://www.w3.org/2000/svg" viewBox="0 0 50 50">
  <defs>
    <style>
      .cls-1 {
        fill: #2e3338;
      }
    </style>
  </defs>
  <path class="cls-1" d="M.83,46.83v-4.83s12.08-4.83,24.17-4.83,24.17,4.83,24.17,4.83v4.83H.83ZM23.31,15.65C20.41,6.22,5.66,8.4,5.66,8.4c0,0,.48,18.85,14.26,15.95-.97-7.01-4.59-8.94-4.59-8.94,6.77,0,7.25,8.22,7.25,8.22v11.12h4.83v-10.15s0-9.43,7.25-11.84c0,0-4.83,7.25-4.83,12.09,16.92,1.69,16.92-21.51,16.92-21.51,0,0-21.51-2.42-23.44,12.33Z"/>
</svg>