<?xml version="1.0" encoding="UTF-8"?>
<svg id="Capa_1" data-name="Capa 1" xmlns="http://www.w3.org/2000/svg" viewBox="0 0 50 50">
  <defs>
    <style>
      .cls-1 {
        fill: #2e3338;
      }
    </style>
  </defs>
  <path class="cls-1" d="M25,.73c-3.19,0-6.34,.63-9.29,1.85-2.94,1.22-5.62,3.01-7.87,5.26C3.29,12.39,.73,18.56,.73,25s2.56,12.61,7.11,17.16c2.25,2.25,4.93,4.04,7.87,5.26,2.94,1.22,6.1,1.85,9.29,1.85,6.44,0,12.61-2.56,17.16-7.11,4.55-4.55,7.11-10.73,7.11-17.16,0-3.19-.63-6.34-1.85-9.29-1.22-2.94-3.01-5.62-5.26-7.87-2.25-2.25-4.93-4.04-7.87-5.26-2.94-1.22-6.1-1.85-9.29-1.85ZM12.86,18.93c0-1.94,1.7-3.64,3.64-3.64s3.64,1.7,3.64,3.64-1.7,3.64-3.64,3.64-3.64-1.7-3.64-3.64Zm12.14,18.76c-4.25,0-7.99-1.77-10.17-4.39l3.45-3.45c1.09,1.75,3.69,2.99,6.72,2.99s5.63-1.24,6.72-2.99l3.45,3.45c-2.18,2.62-5.92,4.39-10.17,4.39Zm12.14-17.55h-9.71v-2.43h9.71v2.43Z"/>
</svg>