<?xml version="1.0" encoding="UTF-8"?>
<svg id="Capa_1" data-name="Capa 1" xmlns="http://www.w3.org/2000/svg" viewBox="0 0 50 50">
  <defs>
    <style>
      .cls-1 {
        fill: #2e3338;
      }
    </style>
  </defs>
  <path class="cls-1" d="M1.65,4.94L4.97,1.65,48.35,45.03l-3.3,3.32-9.52-9.52c-1.61,1.74-3.94,3.17-6.64,3.87v5.66h-7.78v-5.66c-5.27-1.32-9.08-5.27-9.08-9.91h5.19c0,2.8,3.56,5.19,7.78,5.19,2.93,0,5.55-1.14,6.88-2.8l-7.71-7.71c-5.45-1.37-12.14-3.11-12.14-10.25,0-.6,0-1.17,.18-1.71L1.65,4.94Zm19.46,2.36V1.65h7.78V7.3c5.27,1.32,9.08,5.27,9.08,9.91h-5.19c0-2.8-3.56-5.19-7.78-5.19-.96,0-1.87,.13-2.72,.34l-4.02-4.02,2.85-1.04Z"/>
</svg>