<?xml version="1.0" encoding="UTF-8"?>
<svg id="Capa_1" data-name="Capa 1" xmlns="http://www.w3.org/2000/svg" viewBox="0 0 80 50">
  <defs>
    <style>
      .cls-1 {
        fill: #2e3338;
      }
    </style>
  </defs>
  <path class="cls-1" d="M40,1.03c3.01,0,5.9,1.2,8.03,3.32,2.13,2.13,3.33,5.02,3.33,8.03s-1.2,5.9-3.33,8.03c-2.13,2.13-5.02,3.33-8.03,3.33s-5.9-1.2-8.03-3.33c-2.13-2.13-3.33-5.02-3.33-8.03s1.2-5.9,3.33-8.03c2.13-2.13,5.01-3.32,8.03-3.32ZM17.3,9.14c1.82,0,3.5,.49,4.96,1.36-.49,4.64,.87,9.24,3.67,12.84-1.62,3.11-4.87,5.25-8.63,5.25-2.58,0-5.06-1.03-6.88-2.85-1.82-1.82-2.85-4.3-2.85-6.88s1.03-5.06,2.85-6.88c1.82-1.82,4.3-2.85,6.88-2.85Zm45.41,0c2.58,0,5.06,1.03,6.88,2.85,1.82,1.82,2.85,4.3,2.85,6.88s-1.03,5.06-2.85,6.88c-1.82,1.82-4.3,2.85-6.88,2.85-3.76,0-7.01-2.14-8.63-5.25,2.79-3.6,4.15-8.21,3.67-12.84,1.46-.88,3.15-1.36,4.96-1.36ZM18.92,42.39c0-6.71,9.44-12.16,21.08-12.16s21.08,5.45,21.08,12.16v5.68H18.92v-5.68ZM1.08,48.06v-4.87c0-4.51,6.13-8.3,14.43-9.41-1.91,2.21-3.08,5.25-3.08,8.6v5.68H1.08Zm77.84,0h-11.35v-5.68c0-3.34-1.17-6.39-3.08-8.6,8.3,1.1,14.43,4.9,14.43,9.41v4.87Z"/>
</svg>